<svg xmlns="http://www.w3.org/2000/svg" viewBox="0 0 200 200" role="img" aria-label="AFCO - La Jeunesse Vivante">
  <defs>
    <linearGradient id="blue" x1="0%" y1="0%" x2="100%" y2="100%">
      <stop offset="0%" stop-color="#1e3a8a"/>
      <stop offset="100%" stop-color="#1d4ed8"/>
    </linearGradient>
  </defs>
  <circle cx="100" cy="100" r="96" fill="url(#blue)" stroke="#facc15" stroke-width="4"/>
  <text x="100" y="38" text-anchor="middle" fill="#facc15" font-family="Arial Black, Arial, sans-serif" font-size="22" font-weight="900">A.F.C.O</text>
  <circle cx="100" cy="92" r="22" fill="#ffffff" stroke="#111827" stroke-width="2"/>
  <path d="M88 92c0-6.6 5.4-12 12-12s12 5.4 12 12" fill="none" stroke="#111827" stroke-width="2"/>
  <path d="M76 78c8-10 18-14 24-14s16 4 24 14" fill="#dc2626" stroke="#111827" stroke-width="1.5"/>
  <path d="M124 78c-8-10-18-14-24-14s-16 4-24 14" fill="#dc2626" stroke="#111827" stroke-width="1.5"/>
  <circle cx="88" cy="76" r="3" fill="#111827"/>
  <circle cx="112" cy="76" r="3" fill="#111827"/>
  <path d="M84 84c4 3 8 4 16 4s12-1 16-4" fill="none" stroke="#111827" stroke-width="1.5"/>
  <text x="100" y="168" text-anchor="middle" fill="#facc15" font-family="Georgia, serif" font-size="11" font-style="italic">La Jeunesse Vivante</text>
</svg>
